<svg xmlns="http://www.w3.org/2000/svg" width="720" height="900" viewBox="0 0 720 900" role="img" aria-labelledby="title desc">
  <title id="title">Banarasi Katan Silk</title>
  <desc id="desc">Sample demo product image for Banarasi Katan Silk.</desc>
  <defs>
    <linearGradient id="bg" x1="0" y1="0" x2="1" y2="1">
      <stop offset="0" stop-color="#173B75"/>
      <stop offset="0.52" stop-color="#CBA24B"/>
      <stop offset="1" stop-color="#241712"/>
    </linearGradient>
    <filter id="shadow" x="-20%" y="-20%" width="140%" height="140%"><feDropShadow dx="0" dy="20" stdDeviation="20" flood-color="#241712" flood-opacity="0.24"/></filter>
  </defs>
  <rect width="720" height="900" fill="#FAF6EE"/>
  <g filter="url(#shadow)">
    <rect width="720" height="900" fill="url(#bg)"/>
      <g opacity="0.18" stroke="#ffffff" stroke-width="2">
        <path d="M0 120 H720M0 210 H720M0 300 H720M0 390 H720M0 480 H720M0 570 H720"/>
        <path d="M80 0 V900M180 0 V900M280 0 V900M380 0 V900M480 0 V900M580 0 V900"/>
      </g>
      <g opacity="0.32" stroke="#CBA24B" stroke-width="5" fill="none">
        <path d="M70 95 C180 20 275 170 390 92 S595 80 650 150"/>
        <path d="M70 805 C180 730 275 880 390 802 S595 790 650 860"/>
      </g>
    <path d="M148 120 C282 64 438 92 560 180 C482 286 472 410 546 584 C420 650 284 644 160 572 C220 408 216 270 148 120Z" fill="#E9D7A5" opacity="0.88"/>
    <path d="M188 126 C324 96 438 130 526 194 C458 314 462 420 516 558 C410 602 296 598 198 544 C252 394 250 274 188 126Z" fill="#173B75" opacity="0.98"/>
    <path d="M208 152 C310 136 414 154 492 208" stroke="#CBA24B" stroke-width="24" stroke-linecap="round" opacity="0.9"/>
    <path d="M188 540 C300 584 404 584 516 548" stroke="#CBA24B" stroke-width="22" stroke-linecap="round" opacity="0.9"/>
    <g fill="#CBA24B" opacity="0.88">
      <circle cx="284" cy="270" r="10"/><circle cx="364" cy="252" r="10"/><circle cx="444" cy="286" r="10"/>
      <circle cx="276" cy="392" r="10"/><circle cx="378" cy="410" r="10"/><circle cx="462" cy="386" r="10"/>
    </g>
  </g>
  <rect x="48" y="48" width="624" height="804" rx="34" fill="none" stroke="#E9D7A5" stroke-width="3" opacity="0.72"/>
  <g font-family="Georgia, 'Times New Roman', serif" text-anchor="middle">
    <text x="360" y="822" fill="#FAF6EE" font-size="34" font-weight="700">Banarasi Katan Silk</text>
    <text x="360" y="858" fill="#E9D7A5" font-size="22" letter-spacing="4">SILK SAREE</text>
  </g>
</svg>