<svg xmlns="http://www.w3.org/2000/svg" width="720" height="900" viewBox="0 0 720 900" role="img" aria-labelledby="title desc">
  <title id="title">Bridal Lehenga Set</title>
  <desc id="desc">Sample demo product image for Bridal Lehenga Set.</desc>
  <defs>
    <linearGradient id="bg" x1="0" y1="0" x2="1" y2="1">
      <stop offset="0" stop-color="#8A1224"/>
      <stop offset="0.52" stop-color="#D4A94E"/>
      <stop offset="1" stop-color="#241712"/>
    </linearGradient>
    <filter id="shadow" x="-20%" y="-20%" width="140%" height="140%"><feDropShadow dx="0" dy="20" stdDeviation="20" flood-color="#241712" flood-opacity="0.24"/></filter>
  </defs>
  <rect width="720" height="900" fill="#FAF6EE"/>
  <g filter="url(#shadow)">
    <rect width="720" height="900" fill="url(#bg)"/>
      <g opacity="0.18" stroke="#ffffff" stroke-width="2">
        <path d="M0 120 H720M0 210 H720M0 300 H720M0 390 H720M0 480 H720M0 570 H720"/>
        <path d="M80 0 V900M180 0 V900M280 0 V900M380 0 V900M480 0 V900M580 0 V900"/>
      </g>
      <g opacity="0.32" stroke="#D4A94E" stroke-width="5" fill="none">
        <path d="M70 95 C180 20 275 170 390 92 S595 80 650 150"/>
        <path d="M70 805 C180 730 275 880 390 802 S595 790 650 860"/>
      </g>
    <path d="M290 112 H430 L472 286 H248Z" fill="#8A1224"/>
    <path d="M244 320 C300 286 420 286 476 320 L574 790 H146Z" fill="#F6C6CF" opacity="0.95"/>
    <path d="M278 334 C330 312 390 312 442 334 L518 752 H202Z" fill="#8A1224"/>
    <path d="M248 286 H472M214 444 H506M178 620 H542" stroke="#D4A94E" stroke-width="18" opacity="0.88"/>
    <g fill="#D4A94E" opacity="0.9"><circle cx="320" cy="198" r="10"/><circle cx="400" cy="198" r="10"/><circle cx="360" cy="520" r="12"/></g>
  </g>
  <rect x="48" y="48" width="624" height="804" rx="34" fill="none" stroke="#F6C6CF" stroke-width="3" opacity="0.72"/>
  <g font-family="Georgia, 'Times New Roman', serif" text-anchor="middle">
    <text x="360" y="822" fill="#FAF6EE" font-size="34" font-weight="700">Bridal Lehenga Set</text>
    <text x="360" y="858" fill="#F6C6CF" font-size="22" letter-spacing="4">BRIDAL</text>
  </g>
</svg>