<svg xmlns="http://www.w3.org/2000/svg" width="720" height="900" viewBox="0 0 720 900" role="img" aria-labelledby="title desc">
  <title id="title">Silk Potli Bag</title>
  <desc id="desc">Sample demo product image for Silk Potli Bag.</desc>
  <defs>
    <linearGradient id="bg" x1="0" y1="0" x2="1" y2="1">
      <stop offset="0" stop-color="#6E1423"/>
      <stop offset="0.52" stop-color="#D4A94E"/>
      <stop offset="1" stop-color="#241712"/>
    </linearGradient>
    <filter id="shadow" x="-20%" y="-20%" width="140%" height="140%"><feDropShadow dx="0" dy="20" stdDeviation="20" flood-color="#241712" flood-opacity="0.24"/></filter>
  </defs>
  <rect width="720" height="900" fill="#FAF6EE"/>
  <g filter="url(#shadow)">
    <rect width="720" height="900" fill="url(#bg)"/>
      <g opacity="0.18" stroke="#ffffff" stroke-width="2">
        <path d="M0 120 H720M0 210 H720M0 300 H720M0 390 H720M0 480 H720M0 570 H720"/>
        <path d="M80 0 V900M180 0 V900M280 0 V900M380 0 V900M480 0 V900M580 0 V900"/>
      </g>
      <g opacity="0.32" stroke="#D4A94E" stroke-width="5" fill="none">
        <path d="M70 95 C180 20 275 170 390 92 S595 80 650 150"/>
        <path d="M70 805 C180 730 275 880 390 802 S595 790 650 860"/>
      </g>
    <path d="M216 360 C224 270 496 270 504 360 L552 746 H168Z" fill="#6E1423"/>
    <path d="M278 350 C288 262 432 262 442 350" fill="none" stroke="#D4A94E" stroke-width="26" stroke-linecap="round"/>
    <path d="M204 430 H516M190 568 H530M176 704 H544" stroke="#D4A94E" stroke-width="16" opacity="0.84"/>
    <circle cx="360" cy="484" r="56" fill="#F1C6D0" opacity="0.9"/><path d="M330 484 H390M360 454 V514" stroke="#D4A94E" stroke-width="12"/>
  </g>
  <rect x="48" y="48" width="624" height="804" rx="34" fill="none" stroke="#F1C6D0" stroke-width="3" opacity="0.72"/>
  <g font-family="Georgia, 'Times New Roman', serif" text-anchor="middle">
    <text x="360" y="822" fill="#FAF6EE" font-size="34" font-weight="700">Silk Potli Bag</text>
    <text x="360" y="858" fill="#F1C6D0" font-size="22" letter-spacing="4">ACCESSORY</text>
  </g>
</svg>