<svg xmlns="http://www.w3.org/2000/svg" width="720" height="900" viewBox="0 0 720 900" role="img" aria-labelledby="title desc">
  <title id="title">Temple Jewellery Set</title>
  <desc id="desc">Sample demo product image for Temple Jewellery Set.</desc>
  <defs>
    <linearGradient id="bg" x1="0" y1="0" x2="1" y2="1">
      <stop offset="0" stop-color="#A66A14"/>
      <stop offset="0.52" stop-color="#F3D37B"/>
      <stop offset="1" stop-color="#241712"/>
    </linearGradient>
    <filter id="shadow" x="-20%" y="-20%" width="140%" height="140%"><feDropShadow dx="0" dy="20" stdDeviation="20" flood-color="#241712" flood-opacity="0.24"/></filter>
  </defs>
  <rect width="720" height="900" fill="#FAF6EE"/>
  <g filter="url(#shadow)">
    <rect width="720" height="900" fill="url(#bg)"/>
      <g opacity="0.18" stroke="#ffffff" stroke-width="2">
        <path d="M0 120 H720M0 210 H720M0 300 H720M0 390 H720M0 480 H720M0 570 H720"/>
        <path d="M80 0 V900M180 0 V900M280 0 V900M380 0 V900M480 0 V900M580 0 V900"/>
      </g>
      <g opacity="0.32" stroke="#F3D37B" stroke-width="5" fill="none">
        <path d="M70 95 C180 20 275 170 390 92 S595 80 650 150"/>
        <path d="M70 805 C180 730 275 880 390 802 S595 790 650 860"/>
      </g>
    <circle cx="360" cy="332" r="150" fill="none" stroke="#F3D37B" stroke-width="34"/>
    <circle cx="360" cy="332" r="86" fill="none" stroke="#FFF0BF" stroke-width="18" opacity="0.95"/>
    <path d="M208 410 C246 576 474 576 512 410" fill="none" stroke="#F3D37B" stroke-width="42" stroke-linecap="round"/>
    <g fill="#FFF0BF" stroke="#F3D37B" stroke-width="10"><circle cx="214" cy="536" r="36"/><circle cx="506" cy="536" r="36"/><circle cx="360" cy="620" r="48"/></g>
    <g fill="#A66A14"><circle cx="360" cy="332" r="36"/><circle cx="214" cy="536" r="14"/><circle cx="506" cy="536" r="14"/><circle cx="360" cy="620" r="18"/></g>
  </g>
  <rect x="48" y="48" width="624" height="804" rx="34" fill="none" stroke="#FFF0BF" stroke-width="3" opacity="0.72"/>
  <g font-family="Georgia, 'Times New Roman', serif" text-anchor="middle">
    <text x="360" y="822" fill="#FAF6EE" font-size="34" font-weight="700">Temple Jewellery Set</text>
    <text x="360" y="858" fill="#FFF0BF" font-size="22" letter-spacing="4">ACCESSORY</text>
  </g>
</svg>