<svg xmlns="http://www.w3.org/2000/svg" width="720" height="900" viewBox="0 0 720 900" role="img" aria-labelledby="title desc">
  <title id="title">Zari Bridal Dupatta</title>
  <desc id="desc">Sample demo product image for Zari Bridal Dupatta.</desc>
  <defs>
    <linearGradient id="bg" x1="0" y1="0" x2="1" y2="1">
      <stop offset="0" stop-color="#B68A3E"/>
      <stop offset="0.52" stop-color="#7A1628"/>
      <stop offset="1" stop-color="#241712"/>
    </linearGradient>
    <filter id="shadow" x="-20%" y="-20%" width="140%" height="140%"><feDropShadow dx="0" dy="20" stdDeviation="20" flood-color="#241712" flood-opacity="0.24"/></filter>
  </defs>
  <rect width="720" height="900" fill="#FAF6EE"/>
  <g filter="url(#shadow)">
    <rect width="720" height="900" fill="url(#bg)"/>
      <g opacity="0.18" stroke="#ffffff" stroke-width="2">
        <path d="M0 120 H720M0 210 H720M0 300 H720M0 390 H720M0 480 H720M0 570 H720"/>
        <path d="M80 0 V900M180 0 V900M280 0 V900M380 0 V900M480 0 V900M580 0 V900"/>
      </g>
      <g opacity="0.32" stroke="#7A1628" stroke-width="5" fill="none">
        <path d="M70 95 C180 20 275 170 390 92 S595 80 650 150"/>
        <path d="M70 805 C180 730 275 880 390 802 S595 790 650 860"/>
      </g>
    <path d="M168 120 C312 190 414 184 560 118 C520 340 538 578 584 792 C420 734 298 734 136 792 C184 580 204 342 168 120Z" fill="#FFF2C7" opacity="0.95"/>
    <path d="M206 174 C326 220 420 218 522 174 C490 372 504 552 536 724 C410 690 306 690 184 724 C216 552 232 372 206 174Z" fill="#B68A3E" opacity="0.92"/>
    <path d="M184 150 C314 210 424 210 544 150M166 762 C308 706 420 706 558 762" stroke="#7A1628" stroke-width="20"/>
    <g fill="#7A1628" opacity="0.88"><circle cx="288" cy="330" r="9"/><circle cx="360" cy="448" r="9"/><circle cx="436" cy="330" r="9"/><circle cx="288" cy="580" r="9"/><circle cx="436" cy="580" r="9"/></g>
  </g>
  <rect x="48" y="48" width="624" height="804" rx="34" fill="none" stroke="#FFF2C7" stroke-width="3" opacity="0.72"/>
  <g font-family="Georgia, 'Times New Roman', serif" text-anchor="middle">
    <text x="360" y="822" fill="#FAF6EE" font-size="34" font-weight="700">Zari Bridal Dupatta</text>
    <text x="360" y="858" fill="#FFF2C7" font-size="22" letter-spacing="4">BRIDAL</text>
  </g>
</svg>